<svg width="600" height="180" viewBox="0 0 600 180" fill="none" xmlns="http://www.w3.org/2000/svg">
<path fill-rule="evenodd" clip-rule="evenodd" d="M161 151.25C161.171 151.516 161.394 151.746 161.654 151.926C161.915 152.105 162.209 152.231 162.519 152.296C162.828 152.361 163.148 152.364 163.459 152.305C163.77 152.245 164.066 152.125 164.33 151.95L195.82 131.2C196.268 130.815 196.56 130.28 196.641 129.695C196.722 129.11 196.586 128.516 196.259 128.024C195.932 127.532 195.436 127.177 194.865 127.025C194.295 126.873 193.688 126.936 193.16 127.2L161.69 147.96C161.423 148.132 161.193 148.356 161.014 148.617C160.834 148.879 160.709 149.174 160.644 149.485C160.58 149.796 160.579 150.117 160.64 150.428C160.701 150.74 160.823 151.036 161 151.3" fill="white"/>
<path fill-rule="evenodd" clip-rule="evenodd" d="M196.24 151.29C196.602 150.762 196.74 150.112 196.624 149.482C196.508 148.852 196.147 148.294 195.62 147.93L164.56 126.58C164.03 126.215 163.376 126.076 162.743 126.194C162.11 126.311 161.55 126.675 161.185 127.205C160.82 127.735 160.681 128.389 160.799 129.022C160.916 129.655 161.28 130.215 161.81 130.58L192.87 151.92C193.132 152.101 193.427 152.228 193.738 152.295C194.049 152.362 194.371 152.367 194.684 152.309C194.997 152.252 195.295 152.133 195.562 151.96C195.829 151.786 196.06 151.562 196.24 151.3" fill="white"/>
<path fill-rule="evenodd" clip-rule="evenodd" d="M431.81 137.76H411.11C409.11 137.76 407.56 137.01 407.56 134.3C407.56 131.59 409.15 130.85 411.11 130.85H437.17C437.497 130.871 437.826 130.825 438.135 130.714C438.444 130.603 438.727 130.43 438.966 130.206C439.206 129.981 439.396 129.71 439.527 129.409C439.657 129.108 439.725 128.783 439.725 128.455C439.725 128.127 439.657 127.802 439.527 127.501C439.396 127.2 439.206 126.929 438.966 126.704C438.727 126.48 438.444 126.307 438.135 126.196C437.826 126.085 437.497 126.039 437.17 126.06H410.4C405.72 126.06 401.93 127.83 401.93 134.3C401.93 140.77 405.72 142.55 410.4 142.55H431.09C433.09 142.55 434.65 143.28 434.65 146C434.65 148.72 433.05 149.45 431.09 149.45H405C404.672 149.429 404.344 149.475 404.035 149.586C403.726 149.697 403.443 149.87 403.204 150.094C402.964 150.319 402.773 150.59 402.643 150.891C402.512 151.192 402.445 151.517 402.445 151.845C402.445 152.173 402.512 152.498 402.643 152.799C402.773 153.1 402.964 153.371 403.204 153.596C403.443 153.82 403.726 153.993 404.035 154.104C404.344 154.215 404.672 154.261 405 154.24H431.84C436.51 154.24 440.31 152.48 440.31 146C440.31 139.52 436.51 137.76 431.84 137.76" fill="white"/>
<path fill-rule="evenodd" clip-rule="evenodd" d="M492.8 137.76H472.08C470.13 137.76 468.54 137.01 468.54 134.3C468.54 131.59 470.13 130.85 472.08 130.85H498.13C498.457 130.871 498.786 130.825 499.095 130.714C499.404 130.603 499.687 130.43 499.926 130.206C500.166 129.981 500.356 129.71 500.487 129.409C500.617 129.108 500.685 128.783 500.685 128.455C500.685 128.127 500.617 127.802 500.487 127.501C500.356 127.2 500.166 126.929 499.926 126.704C499.687 126.48 499.404 126.307 499.095 126.196C498.786 126.085 498.457 126.039 498.13 126.06H471.37C466.69 126.06 462.9 127.83 462.9 134.3C462.9 140.77 466.69 142.55 471.37 142.55H492.07C494.07 142.55 495.61 143.28 495.61 146C495.61 148.72 494.03 149.45 492.07 149.45H465.94C465.612 149.429 465.284 149.475 464.975 149.586C464.666 149.697 464.383 149.87 464.144 150.094C463.904 150.319 463.713 150.59 463.583 150.891C463.452 151.192 463.385 151.517 463.385 151.845C463.385 152.173 463.452 152.498 463.583 152.799C463.713 153.1 463.904 153.371 464.144 153.596C464.383 153.82 464.666 153.993 464.975 154.104C465.284 154.215 465.612 154.261 465.94 154.24H492.8C497.45 154.24 501.23 152.48 501.23 146C501.23 139.52 497.45 137.76 492.8 137.76Z" fill="white"/>
<path fill-rule="evenodd" clip-rule="evenodd" d="M117.1 29.37C116.711 28.6337 116.18 27.9815 115.538 27.4509C114.896 26.9204 114.156 26.5219 113.36 26.2784C112.563 26.035 111.727 25.9513 110.898 26.0322C110.069 26.1131 109.264 26.3571 108.53 26.75L36.1 65.28V33.05C36.1 31.1802 35.3572 29.387 34.0351 28.0649C32.713 26.7428 30.9198 26 29.05 26C27.1802 26 25.387 26.7428 24.0649 28.0649C22.7428 29.387 22 31.1802 22 33.05V92.25C22 94.1198 22.7428 95.913 24.0649 97.2351C25.387 98.5572 27.1802 99.3 29.05 99.3C30.9198 99.3 32.713 98.5572 34.0351 97.2351C35.3572 95.913 36.1 94.1198 36.1 92.25V79.64L59.87 67L108.06 98.28C108.759 98.7357 109.54 99.0493 110.36 99.2029C111.18 99.3566 112.022 99.3473 112.838 99.1755C113.654 99.0037 114.429 98.6728 115.117 98.2017C115.805 97.7307 116.394 97.1286 116.85 96.43C117.306 95.7314 117.619 94.9498 117.773 94.13C117.927 93.3102 117.917 92.4681 117.745 91.6519C117.574 90.8356 117.243 90.0612 116.772 89.3729C116.301 88.6845 115.699 88.0957 115 87.64L72.69 60.19L114.47 38C115.214 37.611 115.873 37.0778 116.409 36.4316C116.945 35.7853 117.347 35.0389 117.592 34.2357C117.837 33.4326 117.919 32.5888 117.835 31.7534C117.75 30.9181 117.501 30.1079 117.1 29.37Z" fill="white"/>
<path fill-rule="evenodd" clip-rule="evenodd" d="M154.85 39.39H224.28C225.871 39.39 227.397 38.7579 228.523 37.6327C229.648 36.5074 230.28 34.9813 230.28 33.39C230.28 31.7987 229.648 30.2726 228.523 29.1474C227.397 28.0222 225.871 27.39 224.28 27.39H151.28C141.28 27.39 134.38 34.39 134.38 44.32V81C134.38 91 141.32 97.92 151.28 97.92H224.28C225.871 97.92 227.397 97.2879 228.523 96.1627C229.648 95.0374 230.28 93.5113 230.28 91.92C230.28 90.3287 229.648 88.8026 228.523 87.6774C227.397 86.5522 225.871 85.92 224.28 85.92H154.82C153.978 85.9649 153.136 85.8318 152.348 85.5293C151.561 85.2268 150.847 84.7617 150.251 84.1645C149.656 83.5672 149.193 82.8511 148.893 82.0628C148.593 81.2746 148.462 80.432 148.51 79.59V68.64H213C214.591 68.64 216.117 68.0079 217.243 66.8827C218.368 65.7574 219 64.2313 219 62.64C219 61.0487 218.368 59.5226 217.243 58.3974C216.117 57.2722 214.591 56.64 213 56.64H148.51V45.73C148.461 44.8845 148.591 44.0381 148.892 43.2465C149.193 42.4549 149.658 41.736 150.257 41.1371C150.856 40.5383 151.575 40.073 152.367 39.7718C153.158 39.4707 154.005 39.3406 154.85 39.39Z" fill="white"/>
<path fill-rule="evenodd" clip-rule="evenodd" d="M107.71 130.84H135.53C136.138 130.801 136.709 130.531 137.126 130.086C137.543 129.642 137.775 129.055 137.775 128.445C137.775 127.835 137.543 127.248 137.126 126.804C136.709 126.359 136.138 126.089 135.53 126.05H106.31C105.409 126.007 104.509 126.153 103.668 126.478C102.827 126.803 102.063 127.3 101.425 127.937C100.786 128.575 100.288 129.338 99.962 130.179C99.6358 131.019 99.4886 131.919 99.53 132.82V147.51C99.4888 148.411 99.6359 149.311 99.962 150.153C100.288 150.994 100.786 151.758 101.424 152.396C102.062 153.034 102.826 153.532 103.667 153.858C104.509 154.184 105.409 154.331 106.31 154.29H135.53C136.167 154.29 136.777 154.037 137.227 153.587C137.677 153.137 137.93 152.527 137.93 151.89C137.93 151.253 137.677 150.643 137.227 150.193C136.777 149.743 136.167 149.49 135.53 149.49H107.71C107.371 149.507 107.032 149.453 106.715 149.331C106.399 149.209 106.111 149.021 105.872 148.781C105.632 148.541 105.446 148.252 105.325 147.935C105.204 147.618 105.151 147.279 105.17 146.94V142.58H131C131.611 142.541 132.184 142.27 132.603 141.823C133.022 141.377 133.255 140.787 133.255 140.175C133.255 139.563 133.022 138.973 132.603 138.527C132.184 138.08 131.611 137.809 131 137.77H105.17V133.38C105.154 133.042 105.209 132.705 105.331 132.39C105.454 132.074 105.64 131.788 105.879 131.549C106.118 131.31 106.405 131.124 106.72 131.001C107.035 130.879 107.372 130.824 107.71 130.84Z" fill="white"/>
<path fill-rule="evenodd" clip-rule="evenodd" d="M349.11 130.84H376.91C377.238 130.861 377.566 130.815 377.875 130.704C378.184 130.593 378.467 130.42 378.706 130.196C378.946 129.971 379.137 129.7 379.267 129.399C379.398 129.098 379.465 128.773 379.465 128.445C379.465 128.117 379.398 127.792 379.267 127.491C379.137 127.19 378.946 126.919 378.706 126.694C378.467 126.47 378.184 126.297 377.875 126.186C377.566 126.075 377.238 126.029 376.91 126.05H347.68C346.78 126.009 345.881 126.156 345.04 126.481C344.199 126.807 343.436 127.304 342.798 127.941C342.16 128.578 341.662 129.34 341.335 130.18C341.008 131.021 340.86 131.92 340.9 132.82V147.51C340.859 148.411 341.006 149.311 341.332 150.153C341.658 150.994 342.156 151.758 342.794 152.396C343.432 153.034 344.196 153.532 345.037 153.858C345.879 154.184 346.779 154.331 347.68 154.29H376.91C377.547 154.29 378.157 154.037 378.607 153.587C379.057 153.137 379.31 152.527 379.31 151.89C379.31 151.253 379.057 150.643 378.607 150.193C378.157 149.743 377.547 149.49 376.91 149.49H349.09C348.751 149.507 348.412 149.453 348.096 149.331C347.779 149.209 347.491 149.021 347.252 148.781C347.012 148.541 346.826 148.252 346.705 147.935C346.584 147.618 346.531 147.279 346.55 146.94V142.58H372.39C373.001 142.541 373.574 142.27 373.993 141.823C374.412 141.377 374.645 140.787 374.645 140.175C374.645 139.563 374.412 138.973 373.993 138.527C373.574 138.08 373.001 137.809 372.39 137.77H346.55V133.38C346.534 133.041 346.59 132.701 346.713 132.385C346.836 132.068 347.025 131.781 347.266 131.541C347.507 131.302 347.796 131.116 348.114 130.995C348.431 130.874 348.771 130.821 349.11 130.84Z" fill="white"/>
<path fill-rule="evenodd" clip-rule="evenodd" d="M578.76 33.07C578.76 31.2002 578.017 29.407 576.695 28.0849C575.373 26.7628 573.58 26.02 571.71 26.02C569.84 26.02 568.047 26.7628 566.725 28.0849C565.403 29.407 564.66 31.2002 564.66 33.07V57.72H501.92C501.075 57.7666 500.23 57.6341 499.44 57.3311C498.65 57.028 497.933 56.5614 497.337 55.9617C496.74 55.362 496.276 54.6429 495.977 53.8516C495.678 53.0602 495.549 52.2145 495.6 51.37V33.06C495.531 31.2349 494.758 29.5074 493.442 28.2404C492.127 26.9735 490.371 26.2656 488.545 26.2656C486.719 26.2656 484.963 26.9735 483.648 28.2404C482.332 29.5074 481.559 31.2349 481.49 33.06V52.79C481.49 62.73 488.43 69.7 498.39 69.7H564.64V79.58C564.686 80.4221 564.554 81.2645 564.253 82.0522C563.952 82.8399 563.488 83.5553 562.892 84.1517C562.295 84.748 561.58 85.2119 560.792 85.5132C560.005 85.8144 559.162 85.9462 558.32 85.9H493.13C491.539 85.9 490.013 86.5321 488.887 87.6573C487.762 88.7826 487.13 90.3087 487.13 91.9C487.13 93.4913 487.762 95.0174 488.887 96.1426C490.013 97.2679 491.539 97.9 493.13 97.9H561.84C571.84 97.9 578.76 90.9 578.76 80.97V33.07Z" fill="white"/>
<path fill-rule="evenodd" clip-rule="evenodd" d="M324.34 69.7C336.02 69.7 345.48 65.17 345.48 48.56C345.48 31.95 336 27.41 324.34 27.41H255.28C253.419 27.41 251.633 28.1459 250.312 29.4572C248.992 30.7685 248.243 32.5489 248.23 34.41V92.21C248.299 94.0351 249.072 95.7626 250.388 97.0296C251.703 98.2965 253.459 99.0043 255.285 99.0043C257.111 99.0043 258.867 98.2965 260.182 97.0296C261.498 95.7626 262.271 94.0351 262.34 92.21V39.39H322.22C327.3 39.39 331.38 41.39 331.38 48.56C331.38 55.73 327.3 57.71 322.24 57.72H280.48C279.133 57.7326 277.828 58.1983 276.778 59.0423C275.727 59.8863 274.992 61.0593 274.689 62.3725C274.386 63.6856 274.535 65.0623 275.11 66.2809C275.685 67.4995 276.654 68.489 277.86 69.09L334.81 98.57C336.303 99.3458 338.043 99.4966 339.648 98.9893C341.252 98.482 342.589 97.3582 343.365 95.865C344.141 94.3718 344.292 92.6317 343.784 91.0273C343.277 89.4229 342.153 88.0858 340.66 87.31L303.82 69.21L324.34 69.7Z" fill="white"/>
<path fill-rule="evenodd" clip-rule="evenodd" d="M310 142.64C314.57 142.64 318.27 140.88 318.27 134.36C318.27 127.84 314.57 126.09 310 126.09H283C282.271 126.09 281.571 126.38 281.055 126.895C280.54 127.411 280.25 128.111 280.25 128.84V151.48C280.292 152.182 280.601 152.841 281.113 153.323C281.625 153.805 282.302 154.074 283.005 154.074C283.708 154.074 284.385 153.805 284.897 153.323C285.409 152.841 285.718 152.182 285.76 151.48V130.77H309.23C311.23 130.77 312.81 131.55 312.81 134.36C312.81 137.17 311.21 137.95 309.23 137.95H292.83C292.302 137.958 291.792 138.143 291.382 138.476C290.972 138.809 290.687 139.27 290.571 139.786C290.455 140.301 290.517 140.84 290.745 141.316C290.974 141.792 291.356 142.178 291.83 142.41L314.1 154C314.39 154.15 314.706 154.242 315.031 154.27C315.356 154.298 315.683 154.262 315.995 154.164C316.306 154.065 316.594 153.907 316.844 153.697C317.094 153.487 317.3 153.23 317.45 152.94C317.6 152.65 317.692 152.334 317.72 152.009C317.748 151.684 317.712 151.357 317.614 151.045C317.515 150.734 317.357 150.446 317.147 150.196C316.937 149.946 316.68 149.74 316.39 149.59L302 142.44L310 142.64Z" fill="white"/>
<path fill-rule="evenodd" clip-rule="evenodd" d="M225 142.64V151.47C225.023 151.846 224.968 152.222 224.84 152.576C224.712 152.93 224.513 153.254 224.255 153.528C223.997 153.802 223.685 154.021 223.34 154.17C222.994 154.319 222.622 154.396 222.245 154.396C221.869 154.396 221.496 154.319 221.151 154.17C220.805 154.021 220.494 153.802 220.236 153.528C219.978 153.254 219.778 152.93 219.65 152.576C219.522 152.222 219.467 151.846 219.49 151.47V128.84C219.49 128.111 219.78 127.411 220.296 126.895C220.811 126.38 221.511 126.09 222.24 126.09H249.24C253.83 126.09 257.53 127.86 257.53 134.37C257.53 140.88 253.83 142.65 249.24 142.65L225 142.64ZM248.47 138C250.47 138 252.06 137.22 252.06 134.42C252.06 131.62 250.46 130.83 248.47 130.83H225V137.99L248.47 138Z" fill="white"/>
<path fill-rule="evenodd" clip-rule="evenodd" d="M441.69 69.7C453.35 69.7 462.82 65.17 462.82 48.56C462.82 31.95 453.35 27.41 441.69 27.41H372.63C370.77 27.4126 368.986 28.1493 367.665 29.4601C366.345 30.7709 365.596 32.5497 365.58 34.41V92.21C365.58 94.0784 366.322 95.8704 367.644 97.1916C368.965 98.5128 370.757 99.255 372.625 99.255C374.494 99.255 376.285 98.5128 377.607 97.1916C378.928 95.8704 379.67 94.0784 379.67 92.21V39.39H439.57C444.64 39.39 448.75 41.39 448.75 48.56C448.75 55.73 444.65 57.71 439.59 57.72H397.84C396.493 57.7326 395.189 58.1983 394.138 59.0423C393.088 59.8863 392.352 61.0593 392.049 62.3725C391.747 63.6856 391.895 65.0623 392.47 66.2809C393.045 67.4995 394.014 68.489 395.22 69.09L452.22 98.57C453.689 99.1638 455.328 99.1867 456.813 98.6343C458.298 98.0818 459.523 96.994 460.247 95.5845C460.972 94.1749 461.143 92.5455 460.727 91.0163C460.311 89.4871 459.338 88.1687 458 87.32L421.18 69.21L441.68 69.7H441.69Z" fill="white"/>
</svg>
