<svg width="18" height="18" viewBox="0 0 18 18" fill="none" xmlns="http://www.w3.org/2000/svg">
<path d="M15.22 18C15.09 18 14.96 17.99 14.84 17.97C7.18 16.91 1.09 10.82 0.0299962 3.16C-0.0800038 2.36 0.159996 1.56 0.689996 0.95C1.21 0.35 1.97 0 2.77 0H6.07C6.93 0 7.65 0.61 7.8 1.45L8.19 3.64C8.38 4.69 7.93 5.76 7.07 6.38L6.74 6.61C7.95 8.45 9.54 10.03 11.4 11.24L11.61 10.95C12.22 10.08 13.3 9.64 14.35 9.82L16.54 10.21C17.38 10.36 17.99 11.09 17.99 11.94V15.24C17.99 16.04 17.64 16.8 17.04 17.33C16.54 17.76 15.89 18 15.22 18ZM2.77 1.5C2.4 1.5 2.06 1.65 1.81 1.94C1.57 2.22 1.46 2.59 1.51 2.96C2.48 9.95 8.05 15.52 15.04 16.49C15.41 16.54 15.78 16.43 16.06 16.19C16.34 15.94 16.5 15.61 16.5 15.23V11.93C16.5 11.8 16.41 11.7 16.29 11.68L14.1 11.29C13.61 11.21 13.13 11.41 12.85 11.81L12.23 12.68C12 13 11.57 13.09 11.23 12.89C8.7 11.4 6.57 9.29 5.09 6.79C4.89 6.45 4.98 6.02 5.3 5.8L6.19 5.17C6.59 4.89 6.79 4.4 6.71 3.92L6.32 1.71C6.3 1.59 6.19 1.5 6.07 1.5H2.77Z" fill="#8C8C8C"/>
</svg>
